<svg width="141" height="58" viewBox="0 0 141 58" fill="none" xmlns="http://www.w3.org/2000/svg">
<rect width="140.12" height="57.9445" rx="9.48182" fill="#CD2D26"/>
<g clip-path="url(#clip0_57_103)">
<path d="M39.4069 51.016C38.7679 51.5334 37.7668 51.8006 36.2543 51.8006H31.8662V39.9161H36.2543C37.7668 39.9161 38.7679 40.1833 39.4283 40.6837C40.1526 41.2346 40.4294 42.1025 40.4294 43.2376C40.4294 44.0052 40.3443 44.6565 39.7053 45.1572C39.5012 45.3207 39.2636 45.4561 39.0022 45.5578C39.2791 45.6747 39.4922 45.8249 39.6839 45.9751C40.3869 46.5927 40.4294 47.4774 40.4294 48.1451C40.4294 49.4307 40.1738 50.3987 39.4069 51.016ZM35.807 42.0527H34.891V44.5899H35.807C36.9998 44.5899 37.4045 44.2059 37.4045 43.3212C37.4046 42.4199 37.0212 42.0527 35.807 42.0527ZM35.8496 46.5928H34.891V49.6641H35.8496C37.0639 49.6641 37.4046 49.2135 37.4046 48.1289C37.4046 47.0444 37.0212 46.5929 35.8496 46.5929V46.5928Z" fill="white"/>
<path d="M42.5806 51.8009V39.9161H49.5674V42.0527H45.6055V44.74H49.0137V46.8765H45.6055V49.6641H49.5674V51.8008L42.5806 51.8009Z" fill="white"/>
<path d="M57.3002 51.8009L55.4465 47.1772H54.4454V51.8009H51.4209V39.9161H55.7452C59.0469 39.9161 59.9629 41.2682 59.9629 43.5383C59.9629 44.8068 59.7067 45.9421 58.2374 46.6597L60.4528 51.8009H57.3002ZM55.724 42.0527H54.4459V45.0404H55.724C56.8742 45.0404 56.9381 44.2225 56.9381 43.5381C56.9381 42.8536 56.8742 42.0527 55.724 42.0527Z" fill="white"/>
<path d="M69.0802 51.083C68.3132 51.6499 67.3972 51.9343 66.1405 51.9343C64.4363 51.9343 63.5418 51.4001 62.8387 50.7492C61.6246 49.6141 61.7098 47.478 61.7098 45.875C61.7098 44.272 61.6246 42.1026 62.8387 40.9677C63.5418 40.3167 64.4362 39.7825 66.1405 39.7825C67.3972 39.7825 68.3132 40.0659 69.0802 40.6338C69.8683 41.218 70.3583 42.1528 70.4214 43.2878H67.3972C67.376 42.954 67.3333 42.6201 67.1629 42.3698C66.9926 42.0864 66.6943 41.919 66.1405 41.919C65.5867 41.919 65.3098 42.1198 65.1394 42.3864C64.7777 42.9373 64.7346 44.4229 64.7346 45.8584C64.7346 47.2938 64.7772 48.7794 65.1394 49.3303C65.3098 49.5974 65.5867 49.7977 66.1405 49.7977C66.6943 49.7977 67.0138 49.6141 67.1843 49.3303C67.3547 49.0799 67.3972 48.7462 67.4185 48.4122H70.4434C70.3795 49.5474 69.8683 50.4988 69.0802 51.083Z" fill="white"/>
<path d="M78.4315 51.8009L76.2586 47.4613L75.279 49.0638V51.8013H72.2539V39.9161H75.2789V45.0239L78.1545 39.9161H81.1794L78.1545 44.857L81.6692 51.8009H78.4315Z" fill="white"/>
<path d="M95.3688 45.176C95.0473 45.42 94.5051 45.5931 93.812 45.5931C93.1091 45.5931 92.5869 45.4357 92.2655 45.1838C91.914 44.9084 91.7935 44.515 91.7935 43.9405H93.2196C93.2196 44.1688 93.2398 44.334 93.3703 44.4521C93.4505 44.5229 93.5912 44.5858 93.812 44.5858C94.0328 44.5858 94.1737 44.5385 94.2641 44.4441C94.3646 44.3496 94.4047 44.2001 94.4047 43.9717C94.4047 43.4366 94.2943 43.3422 93.7822 43.1769L92.8779 42.8857C92.1546 42.6495 91.8531 42.3506 91.8531 41.4772C91.8531 40.9576 92.0641 40.5249 92.4959 40.2338C92.8374 40.0055 93.2692 39.8795 93.8114 39.8795C94.4444 39.8795 94.9061 40.0054 95.2175 40.2338C95.6093 40.5172 95.7698 40.966 95.7698 41.5322H94.3437C94.3437 41.3355 94.3437 41.1543 94.2231 41.0286C94.1429 40.942 94.0224 40.8869 93.8114 40.8869C93.6107 40.8869 93.4798 40.9499 93.3998 41.0364C93.3094 41.1308 93.2793 41.2489 93.2793 41.4379C93.2793 41.7922 93.3596 41.8943 93.7713 42.0283L94.6651 42.3118C95.5694 42.603 95.8301 42.9177 95.8301 43.9328C95.8307 44.4993 95.7403 44.8927 95.3688 45.176Z" fill="white"/>
<path d="M100.079 45.1286C99.6969 45.4357 99.1949 45.593 98.5923 45.593C97.9896 45.593 97.4876 45.4356 97.106 45.1286C96.7645 44.8533 96.5737 44.4755 96.5737 44.027V39.9269H97.9998V44.082C97.9998 44.4439 98.2711 44.5855 98.5923 44.5855C98.9134 44.5855 99.1848 44.4438 99.1848 44.082V39.9269H100.611V44.0268C100.611 44.4755 100.42 44.8533 100.079 45.1286Z" fill="white"/>
<path d="M104.336 45.53L103.462 43.3502H102.99V45.53H101.564V39.9269H103.603C105.16 39.9269 105.591 40.5646 105.591 41.6345C105.591 42.2327 105.471 42.7682 104.778 43.1062L105.822 45.5299L104.336 45.53ZM103.593 40.9342H102.99V42.3428H103.593C104.135 42.3428 104.166 41.9573 104.166 41.6343C104.166 41.3113 104.135 40.9342 103.593 40.9342Z" fill="white"/>
<path d="M95.9854 51.7897V48.8701L95.155 50.7903H94.3778L93.5689 48.8783V51.79H92.0571V46.1866H93.3879L94.7718 48.9331L96.1554 46.1866H97.4967V51.7897H95.9854Z" fill="white"/>
<path d="M98.7744 51.7897V46.1866H102.266V47.1939H100.286V48.4609H101.989V49.4688H100.286V50.783H102.266V51.7903L98.7744 51.7897Z" fill="white"/>
<path d="M106.236 51.7897L105.31 49.6098H104.81V51.7897H103.299V46.1866H105.46C107.11 46.1866 107.568 46.8243 107.568 47.8943C107.568 48.4924 107.44 49.028 106.705 49.3659L107.812 51.7897H106.236ZM105.448 47.1939H104.81V48.6026H105.448C106.023 48.6026 106.055 48.2169 106.055 47.894C106.055 47.5712 106.023 47.1939 105.448 47.1939Z" fill="white"/>
<path d="M87.4804 39.9277H85.8208V51.8009H87.4804V39.9277Z" fill="white"/>
<path d="M26.1307 33.2881C24.2742 34.662 22.057 35.3488 19.0149 35.3488C14.8895 35.3488 12.7239 34.0559 11.0223 32.4801C8.08352 29.7324 8.28924 24.5603 8.28924 20.681C8.28924 16.8018 8.08352 11.549 11.0223 8.8017C12.7239 7.22598 14.8895 5.93274 19.0149 5.93274C22.057 5.93274 24.2745 6.61969 26.1307 7.99358C28.0387 9.40775 29.2247 11.6705 29.3793 14.4179H22.057C22.0056 13.6101 21.9032 12.802 21.4898 12.1959C21.0774 11.509 20.3553 11.1047 19.0149 11.1047C17.6745 11.1047 17.0039 11.5899 16.5911 12.2362C15.7146 13.5696 15.6115 17.1659 15.6115 20.6409C15.6115 24.1159 15.7146 27.7118 16.5911 29.0456C17.0039 29.6918 17.6739 30.1767 19.0149 30.1767C20.3559 30.1767 21.129 29.7324 21.5416 29.0456C21.9539 28.4392 22.057 27.6312 22.1086 26.8232H29.4309C29.2762 29.5706 28.0387 31.874 26.1307 33.2881Z" fill="white"/>
<path d="M71.7662 33.2075C70.1162 34.4601 67.3316 35.3488 63.7738 35.3488C60.1642 35.3488 57.4829 34.5408 55.8325 33.2476C54.028 31.8336 53.4092 29.8131 53.4092 26.8634H60.7313C60.7313 28.0354 60.8346 28.8839 61.5047 29.49C61.9174 29.8536 62.6392 30.1767 63.7738 30.1767C64.9083 30.1767 65.63 29.9343 66.0946 29.4495C66.6103 28.9646 66.8165 28.1968 66.8165 27.0252C66.8165 24.2774 66.2492 23.7926 63.6196 22.9441L58.9779 21.4489C55.2654 20.2368 53.7183 18.7015 53.7183 14.2162C53.7183 11.5494 54.8011 9.32712 57.0187 7.83206C58.772 6.66022 60.9892 6.01343 63.7738 6.01343C67.0222 6.01343 69.395 6.65999 70.9925 7.83206C73.0035 9.28662 73.8286 11.5899 73.8286 14.4993H66.5066C66.5066 13.489 66.5066 12.5596 65.8877 11.913C65.4754 11.4686 64.8566 11.1857 63.7738 11.1857C62.7422 11.1857 62.0721 11.509 61.6594 11.9533C61.1953 12.4382 61.0407 13.044 61.0407 14.0141C61.0407 15.8328 61.4532 16.3577 63.5674 17.0445L68.1567 18.4991C72.7974 19.9941 74.1383 21.6105 74.1383 26.823C74.1383 29.7326 73.6743 31.753 71.7662 33.2075Z" fill="white"/>
<path d="M76.1494 35.0261V6.25623H83.4717V35.0261H76.1494Z" fill="white"/>
<path d="M101.674 35.0261L93.8877 20.9641V35.0261H86.5654V6.25623H92.9595L100.591 20.3176V6.25623H107.913V35.0261H101.674Z" fill="white"/>
<path d="M128.745 32.4801C127.044 34.0559 124.775 35.3488 120.649 35.3488C116.524 35.3488 114.358 34.0559 112.658 32.4801C109.719 29.7324 109.925 24.5198 109.925 20.6409C109.925 16.762 109.718 11.549 112.658 8.8017C114.358 7.22598 116.524 5.93274 120.649 5.93274C124.775 5.93274 127.044 7.22598 128.745 8.8017C131.684 11.5494 131.478 16.7618 131.478 20.6409C131.478 24.52 131.684 29.7324 128.745 32.4801ZM123.177 12.2362C122.764 11.5899 121.991 11.1047 120.65 11.1047C119.309 11.1047 118.639 11.5899 118.226 12.2362C117.35 13.5696 117.247 17.1659 117.247 20.6409C117.247 24.1159 117.35 27.7118 118.226 29.0456C118.639 29.6918 119.31 30.1767 120.65 30.1767C121.991 30.1767 122.764 29.6918 123.177 29.0456C124.053 27.7118 124.156 24.116 124.156 20.6409C124.156 17.1658 124.053 13.5696 123.177 12.2362Z" fill="white"/>
<path d="M44.5916 6.25623H37.3729L27.936 35.0261H35.5677L36.7538 30.5408H45.2103L46.3963 35.0261H54.028L44.5916 6.25623ZM37.06 27.6682L35.7551 28.0595V18.5658C35.6797 16.9498 36.829 16.0198 38.322 15.8683C37.4036 16.5584 37.06 17.0965 37.06 17.8461V27.6682ZM39.2082 27.8365L37.9031 28.2362V18.4648C37.8226 16.8025 38.9719 15.8478 40.4702 15.6916C39.5518 16.3985 39.2082 16.9541 39.2082 17.7241V27.8365ZM41.2327 17.4001V27.8238L39.9331 28.2357V18.166C39.8523 16.4491 41.0071 15.4643 42.5002 15.3045C41.4799 15.8478 41.2327 16.6047 41.2327 17.4001ZM46.168 20.6909C46.168 21.4105 45.1691 22.5467 42.8331 22.5173C44.7449 21.8608 44.9006 21.0192 44.9383 19.883V16.1923C44.9383 14.8836 43.7138 15.1192 43.4452 15.0898C44.8201 14.6143 46.1251 15.4349 46.168 16.3652V20.6909Z" fill="white"/>
</g>
<defs>
<clipPath id="clip0_57_103">
<rect width="125.897" height="46.0611" fill="white" transform="translate(6.84814 5.92786)"/>
</clipPath>
</defs>
</svg>
